<?xml version="1.0" encoding="UTF-8"?>
<svg version="1.1" xmlns="http://www.w3.org/2000/svg" width="1000" height="1000">
<path d="M0 0 C330 0 660 0 1000 0 C1000 330 1000 660 1000 1000 C670 1000 340 1000 0 1000 C0 670 0 340 0 0 Z " fill="#FEFEFE" transform="translate(0,0)"/>
<path d="M0 0 C19.8 0 39.6 0 60 0 C60 30.30409173 56.02408079 60.29771533 46 89 C45.67128906 89.94391602 45.34257812 90.88783203 45.00390625 91.86035156 C38.32549288 110.78863855 30.60855431 128.60115612 19.72143555 145.50488281 C19.22297119 146.29604492 18.72450684 147.08720703 18.2109375 147.90234375 C17.53490479 148.94636353 17.53490479 148.94636353 16.84521484 150.01147461 C15.79086351 152.49203255 16.02243653 153.52310412 17 156 C18.35113046 157.92276258 19.78080176 159.79087188 21.25 161.625 C52.16703925 200.89876142 78.52643236 246.13797705 91.40380859 294.7578125 C92.08032679 297.30209715 92.78499131 299.83798954 93.48828125 302.375 C98.60546767 321.09078293 101.84613397 339.82482213 104.1875 359.0625 C104.27235657 359.75937927 104.35721313 360.45625854 104.44464111 361.17425537 C104.99968993 365.77899908 105.54837243 370.3838253 106 375 C106.0893129 375.88828995 106.17862579 376.7765799 106.27064514 377.69178772 C107.15777284 387.60648113 107.12761347 397.48174649 107.09765625 407.42578125 C107.09578686 409.26808127 107.09436542 411.1103818 107.09336853 412.9526825 C107.08958437 417.75789813 107.07979003 422.56308264 107.06866455 427.36828613 C107.0565439 433.15715644 107.05202863 438.94603727 107.04621124 444.73491669 C107.03657534 453.48996598 107.01739031 462.24494723 107 471 C87.2 471 67.4 471 47 471 C46.67 464.07 46.34 457.14 46 450 C45.68955572 446.33675751 45.3645764 442.75699925 44.875 439.125 C44.75157227 438.20485107 44.62814453 437.28470215 44.50097656 436.33666992 C36.23847794 379.29076817 10.65945452 329.53960644 -29 288 C-29.63292969 287.32582031 -30.26585937 286.65164063 -30.91796875 285.95703125 C-35.86603271 280.82091736 -41.40729817 276.4085164 -47 272 C-47.62197266 271.50693359 -48.24394531 271.01386719 -48.88476562 270.50585938 C-56.802701 264.25323465 -64.85771681 258.22899141 -73.25 252.625 C-73.9527002 252.14240723 -74.65540039 251.65981445 -75.37939453 251.16259766 C-79.1542193 248.66000304 -79.1542193 248.66000304 -83.5234375 247.984375 C-86.89790129 249.3682245 -90.14409404 250.93990697 -93.375 252.625 C-94.8131188 253.35681306 -96.25193691 254.08725329 -97.69140625 254.81640625 C-98.41473145 255.1839502 -99.13805664 255.55149414 -99.88330078 255.93017578 C-122.60079675 267.41207513 -146.23652645 274.39040508 -171 280 C-172.01586182 280.23831543 -172.01586182 280.23831543 -173.05224609 280.48144531 C-189.95388288 284.40053722 -207.7166236 285 -225 285 C-225 265.2 -225 245.4 -225 225 C-217.018125 224.4121875 -217.018125 224.4121875 -208.875 223.8125 C-195.61615998 222.74315936 -182.89011504 221.06525268 -170.02392578 217.54931641 C-168.34701064 217.09418262 -166.65711717 216.68717916 -164.96484375 216.29296875 C-131.29593994 208.22700261 -99.48639385 189.3212684 -74.23046875 166.04296875 C-72.17425874 164.15961002 -70.06921774 162.35917369 -67.9375 160.5625 C-41.56347804 137.45232906 -23.12467292 103.76020005 -12 71 C-11.71930664 70.19030762 -11.43861328 69.38061523 -11.14941406 68.54638672 C-3.51368718 46.21031167 -1.81570789 23.60420254 0 0 Z " fill="#2B0659" transform="translate(381,406)"/>
<path d="M0 0 C19.8 0 39.6 0 60 0 C60.226875 4.41375 60.45375 8.8275 60.6875 13.375 C61.9107381 33.34069671 64.98300692 53.18466738 72 72 C72.34160156 72.92103516 72.68320312 73.84207031 73.03515625 74.79101562 C85.01515834 106.69030934 101.62216156 133.22348746 125 158 C126.20269531 159.28390625 126.20269531 159.28390625 127.4296875 160.59375 C134.07247419 167.47611261 141.38280069 173.25588249 149 179 C149.928125 179.7115625 150.85625 180.423125 151.8125 181.15625 C159.19755914 186.69504436 166.99967599 191.41819997 175 196 C175.59796387 196.34562988 176.19592773 196.69125977 176.81201172 197.04736328 C200.56224368 210.66085795 227.31638128 219.36898646 254.4375 222.6875 C255.41251465 222.80689941 256.3875293 222.92629883 257.39208984 223.04931641 C266.60693387 224.09299076 275.69511517 224.48306195 285 225 C285 244.8 285 264.6 285 285 C265.66303648 285 246.59109831 284.11898629 227.73974609 279.64794922 C225.77689004 279.18373429 223.81061751 278.73387406 221.84228516 278.29345703 C195.29034907 272.34579271 171.34766731 262.73932885 147.31469727 250.14819336 C144.93639006 248.90197265 144.93639006 248.90197265 142 248 C139.70072467 249.09091961 137.65114925 250.22407585 135.5 251.5625 C134.84999023 251.96090088 134.19998047 252.35930176 133.53027344 252.76977539 C120.41615687 260.98074142 108.20920801 270.34836838 97 281 C95.63131037 282.19476774 94.25670024 283.38280272 92.875 284.5625 C85.27490319 291.20291045 78.53769069 298.40377323 72.30566406 306.33935547 C71.38006694 307.51660147 70.44918238 308.68969899 69.51464844 309.85986328 C31.74327398 357.23117117 15.60225233 411.14819648 13 471 C-6.8 471 -26.6 471 -47 471 C-47.16043524 450.77179049 -47.16043524 450.77179049 -47.1953125 441.88085938 C-47.21885868 435.90764449 -47.24611095 429.9346834 -47.30175781 423.96166992 C-48.05644536 340.70116546 -30.05047364 259.35831384 18 190 C18.43006348 189.37158203 18.86012695 188.74316406 19.30322266 188.09570312 C25.45412104 179.11860064 31.8415559 170.46751649 38.89916992 162.17675781 C39.42099854 161.55510742 39.94282715 160.93345703 40.48046875 160.29296875 C41.17499146 159.48122192 41.17499146 159.48122192 41.88354492 158.65307617 C43.19144762 156.7165336 43.73537427 155.32448369 44 153 C42.61694049 150.28765004 41.18765082 147.81023228 39.5625 145.25 C38.62497586 143.71332855 37.69145478 142.17420849 36.76171875 140.6328125 C36.05861572 139.46733887 36.05861572 139.46733887 35.34130859 138.27832031 C10.77254603 96.54630497 0 48.00193332 0 0 Z " fill="#2B0659" transform="translate(559,406)"/>
<path d="M0 0 C14.59649033 12.45076902 25.59386884 29.89507931 30.078125 48.609375 C30.35398437 49.51945312 30.62984375 50.42953125 30.9140625 51.3671875 C37.64013288 75.49465099 31.97180657 101.06716514 19.9765625 122.46484375 C5.83956376 146.28511854 -17.25123846 161.38197613 -43.7578125 168.35546875 C-68.87973234 173.45725919 -95.82045277 167.76001047 -117.18212891 153.81787109 C-135.97511137 140.76352599 -149.24836865 122.47565552 -155.921875 100.609375 C-156.19257813 99.72362793 -156.46328125 98.83788086 -156.7421875 97.92529297 C-158.90827891 90.16560414 -159.39349444 82.89148689 -159.296875 74.859375 C-159.28599854 73.62799805 -159.27512207 72.39662109 -159.26391602 71.12792969 C-158.79520058 44.27849444 -148.45513493 21.63084345 -129.37866211 2.70214844 C-116.79596864 -9.33438823 -100.15043227 -18.38679873 -82.921875 -21.390625 C-81.92929688 -21.56980469 -80.93671875 -21.74898438 -79.9140625 -21.93359375 C-49.96929291 -26.01475641 -23.27839162 -19.04595678 0 0 Z " fill="#2B0659" transform="translate(268.921875,382.390625)"/>
<path d="M0 0 C1.22847656 -0.00322266 2.45695313 -0.00644531 3.72265625 -0.00976562 C28.23878701 0.13322347 49.33319445 8.9793006 67.5 25.3125 C68.26828125 25.98667969 69.0365625 26.66085937 69.828125 27.35546875 C85.82946436 42.2658077 96.54252275 65.01693057 97.62646484 86.86108398 C98.4527319 117.28297374 91.07875549 142.12144853 70.02978516 164.77099609 C65.63109781 169.2033791 60.6404419 172.79633817 55.5 176.3125 C54.57960938 176.94800781 53.65921875 177.58351563 52.7109375 178.23828125 C46.60789899 182.11500008 40.21938127 184.71166469 33.4375 187.125 C32.2153479 187.56042114 32.2153479 187.56042114 30.96850586 188.00463867 C7.48759578 195.96311495 -18.16861195 193.84933766 -40.5 183.3125 C-58.37979283 173.58840215 -72.25917354 160.81574522 -82.5 143.3125 C-82.98210938 142.51585937 -83.46421875 141.71921875 -83.9609375 140.8984375 C-94.95338062 121.08403367 -98.27587192 94.21580201 -92.5 72.375 C-88.59788944 58.81713475 -82.52202287 46.20055796 -73.5 35.3125 C-72.78972656 34.45140625 -72.07945312 33.5903125 -71.34765625 32.703125 C-53.26757818 11.73150545 -27.59512449 -0.36195074 0 0 Z " fill="#2B0659" transform="translate(792.5,359.6875)"/>
<path d="M0 0 C22.05186074 10.11342932 37.03176196 42.18354853 45.13183594 63.5546875 C50.90693081 79.82109646 53.3898626 96.44573 53.3125 113.6875 C53.30512817 115.65033936 53.30512817 115.65033936 53.29760742 117.65283203 C53.10216734 133.9114422 50.52976935 148.73455623 45 164 C44.77441406 164.6285791 44.54882812 165.2571582 44.31640625 165.90478516 C37.27026751 185.22692973 27.04932929 201.94898179 13 217 C11.18941542 219.09270723 9.39214551 221.19546247 7.60546875 223.30859375 C5.79192063 225.21921744 4.32529866 226.73204602 2 228 C-9.7894099 225.44940651 -20.63538781 207.35035519 -27 198 C-47.77921158 165.68306231 -57.05708164 123.45204216 -49.4375 85.5 C-48.71847607 82.30408399 -47.88847629 79.1526785 -47 76 C-46.76925781 75.16098145 -46.53851563 74.32196289 -46.30078125 73.45751953 C-37.95505865 43.95494858 -21.64593606 21.23922745 0 0 Z " fill="#2B0659" transform="translate(499,124)"/>
<path d="M0 0 C32.25061371 -0.65817579 59.28189107 8.27651408 83.02880859 30.57519531 C99.80776511 46.88491401 113.37141742 71.69849428 114.07421875 95.51513672 C114.09804716 98.32341382 114.08745371 101.12924776 114.0625 103.9375 C114.05798828 104.90751953 114.05347656 105.87753906 114.04882812 106.87695312 C114.0371315 109.2513676 114.02074086 111.62565021 114 114 C84.96260687 115.18251827 57.80550727 107.47878077 35.95703125 87.73828125 C34.97082316 86.8260946 33.98512376 85.91335758 33 85 C32.11699219 84.20980469 31.23398437 83.41960937 30.32421875 82.60546875 C12.66367337 66.04355761 0.72582585 39.87583988 -0.07714844 15.67480469 C-0.16102717 10.44772748 -0.10558282 5.2263496 0 0 Z " fill="#2C0759" transform="translate(327,238)"/>
<path d="M0 0 C1.53333984 0.00676758 1.53333984 0.00676758 3.09765625 0.01367188 C5.60683194 0.025397 8.1158849 0.04180824 10.625 0.0625 C11.65092058 30.42214983 2.30206961 58.17663748 -18.2734375 80.83984375 C-29.23228996 92.46172396 -42.6266957 101.04190001 -57.375 107.0625 C-58.22191406 107.42085938 -59.06882812 107.77921875 -59.94140625 108.1484375 C-74.1989298 113.80045131 -88.23015869 114.50696817 -103.375 114.0625 C-104.71033973 82.0595427 -96.06038665 56.07888913 -74.375 32.0625 C-55.02589951 12.17426049 -27.79168342 -0.23309154 0 0 Z " fill="#2C075A" transform="translate(662.375,237.9375)"/>
<path d="M0 0 C6.87757535 6.30895691 11.33085558 14.48980529 12.125 23.80859375 C12.58272909 35.95271855 8.92546172 45.41665923 0.8125 54.4375 C-6.55285478 61.6430857 -16.56490033 64.28079795 -26.57983398 64.40063477 C-35.99710275 64.17238197 -44.10738694 59.92196587 -51.125 53.6875 C-58.71104875 45.21577043 -61.51367836 35.31705074 -61.40234375 24.2578125 C-60.65345531 15.12348304 -55.62538088 6.10437254 -48.984375 -0.13671875 C-34.02918294 -12.2687368 -14.9454655 -12.07570882 0 0 Z " fill="#FDFCFD" transform="translate(230.125,428.125)"/>
<path d="M0 0 C9.3807284 5.64144325 15.55553109 13.66659328 19 24 C20.24468089 37.53590465 18.95693413 47.62247054 9.953125 58.46484375 C2.39657539 65.8697108 -6.58608731 69.44401591 -17.125 69.5625 C-28.55900834 69.32616583 -36.95644981 65.08515476 -45 57 C-52.673815 46.86866161 -53.99240686 36.33065522 -53 24 C-52.15250995 20.60040922 -50.89811583 17.93238328 -49 15 C-48.55269531 14.30519531 -48.10539063 13.61039062 -47.64453125 12.89453125 C-36.56283161 -2.94071247 -17.67233408 -8.79532189 0 0 Z " fill="#FDFDFD" transform="translate(811,423)"/>
</svg>
